<svg xmlns="http://www.w3.org/2000/svg" width="512" height="512" viewBox="0 0 512 512" role="img" aria-label="EduBot favicon">
  <defs>
    <linearGradient id="capGradient" x1="88" y1="177" x2="424" y2="344" gradientUnits="userSpaceOnUse">
      <stop stop-color="#31aee4"/>
      <stop offset="0.55" stop-color="#4c4be2"/>
      <stop offset="1" stop-color="#6c00df"/>
    </linearGradient>
  </defs>

  <path
    d="M256 115 91 178c-6 2-10 8-10 15v18c0 7 4 13 10 15l165 62 165-62c6-2 10-8 10-15v-18c0-7-4-13-10-15L256 115Z"
    fill="url(#capGradient)"
  />

  <path
    d="M161 258v40c0 42 50 70 95 70s95-28 95-70v-40l-95 36-95-36Z"
    fill="url(#capGradient)"
  />

  <path
    d="M393 220h24v104h-24z"
    fill="url(#capGradient)"
  />

  <circle cx="405" cy="336" r="28" fill="url(#capGradient)"/>

  <path
    d="M392 361c-11 29-23 56-25 68-2 15 18 22 38 22s40-7 38-22c-2-12-14-39-25-68h-26Z"
    fill="url(#capGradient)"
  />
</svg>
